<?xml version="1.0" encoding="UTF-8" standalone="no"?>
<svg
   xmlns:dc="http://purl.org/dc/elements/1.1/"
   xmlns:cc="http://creativecommons.org/ns#"
   xmlns:rdf="http://www.w3.org/1999/02/22-rdf-syntax-ns#"
   xmlns:svg="http://www.w3.org/2000/svg"
   xmlns="http://www.w3.org/2000/svg"
   xmlns:sodipodi="http://sodipodi.sourceforge.net/DTD/sodipodi-0.dtd"
   xmlns:inkscape="http://www.inkscape.org/namespaces/inkscape"
   width="131.25"
   height="105"
   viewBox="0 0 131.25 105"
   version="1.1"
   id="svg6"
   sodipodi:docname="Icon-Shield-Fill.svg"
   inkscape:export-filename="C:\Users\venimus\Desktop\superhero svg\Icon-Shield-Fill.png"
   inkscape:export-xdpi="96"
   inkscape:export-ydpi="96"
   inkscape:version="0.92.4 (5da689c313, 2019-01-14)">
  <metadata
     id="metadata12">
    <rdf:RDF>
      <cc:Work
         rdf:about="">
        <dc:format>image/svg+xml</dc:format>
        <dc:type
           rdf:resource="http://purl.org/dc/dcmitype/StillImage" />
        <dc:title></dc:title>
      </cc:Work>
    </rdf:RDF>
  </metadata>
  <defs
     id="defs10" />
  <sodipodi:namedview
     pagecolor="#ffffff"
     bordercolor="#666666"
     borderopacity="1"
     objecttolerance="10"
     gridtolerance="10"
     guidetolerance="10"
     inkscape:pageopacity="0"
     inkscape:pageshadow="2"
     inkscape:window-width="1225"
     inkscape:window-height="843"
     id="namedview8"
     showgrid="false"
     inkscape:zoom="1.0074671"
     inkscape:cx="-66.309652"
     inkscape:cy="192.07083"
     inkscape:window-x="0"
     inkscape:window-y="0"
     inkscape:window-maximized="0"
     inkscape:current-layer="g4" />
  <g
     transform="translate(-9.375 -22.5)"
     id="g4">
    <path
       d="M117.609,22.5a4.675,4.675,0,0,1,4.119,2.49L140.06,59.364a4.8,4.8,0,0,1-.826,5.642L78.292,126.128a4.636,4.636,0,0,1-6.584,0L10.766,65.006a4.805,4.805,0,0,1-.827-5.642L28.272,24.99a4.673,4.673,0,0,1,4.118-2.49ZM78.358,34.617,49.051,76.811a1.383,1.383,0,0,0,.326,1.91,1.336,1.336,0,0,0,.783.25l22.861-.084a1.36,1.36,0,0,1,1.355,1.365,1.379,1.379,0,0,1-.01.17l-3.177,26.6a1.366,1.366,0,0,0,1.178,1.525,1.342,1.342,0,0,0,1.29-.606L101.182,65.6a1.383,1.383,0,0,0-.383-1.9,1.339,1.339,0,0,0-.747-.227l-21.8.056A1.36,1.36,0,0,1,76.9,62.16a1.392,1.392,0,0,1,.015-.206L80.8,35.609a1.367,1.367,0,0,0-1.136-1.558A1.342,1.342,0,0,0,78.358,34.617Z"
       id="path2"
       fill-rule="evenodd"
       fill="#2a9cff" />
  </g>
</svg>
